<svg id="Layer_1" data-name="Layer 1" xmlns="http://www.w3.org/2000/svg" viewBox="0 0 512 512"><defs><style>.cls-1{fill:#ffd38d;}.cls-2{fill:#6d4135;}</style></defs><title>video-film-filled</title><rect class="cls-1" x="21.33" y="42.67" width="469.33" height="426.67"/><path class="cls-2" d="M490.67,490.67H21.33A21.33,21.33,0,0,1,0,469.33V42.67A21.33,21.33,0,0,1,21.33,21.33H490.67A21.33,21.33,0,0,1,512,42.67V469.33A21.33,21.33,0,0,1,490.67,490.67ZM42.67,448H469.33V64H42.67Z"/><rect class="cls-2" x="106.67" y="106.67" width="42.67" height="42.67"/><rect class="cls-2" x="192" y="106.67" width="42.67" height="42.67"/><rect class="cls-2" x="277.33" y="106.67" width="42.67" height="42.67"/><rect class="cls-2" x="362.67" y="106.67" width="42.67" height="42.67"/><rect class="cls-2" x="106.67" y="362.67" width="42.67" height="42.67"/><rect class="cls-2" x="192" y="362.67" width="42.67" height="42.67"/><rect class="cls-2" x="277.33" y="362.67" width="42.67" height="42.67"/><rect class="cls-2" x="362.67" y="362.67" width="42.67" height="42.67"/><path class="cls-2" d="M192,209.26v93.48c0,7.93,9.3,13.09,17.21,9.54l104.22-46.74c8.76-3.93,8.76-15.15,0-19.08L209.21,199.72C201.3,196.17,192,201.33,192,209.26Z"/></svg>