<svg xmlns="http://www.w3.org/2000/svg" version="1.1" xmlns:xlink="http://www.w3.org/1999/xlink" xmlns:svgjs="http://svgjs.dev/svgjs" width="300" height="800" preserveAspectRatio="none" viewBox="0 0 300 800"><g mask="url(&quot;#SvgjsMask1001&quot;)" fill="none"><rect width="300" height="800" x="0" y="0" fill="rgba(149, 9, 82, 1)"></rect><path d="M0,266.09C53.301,266.568,109.701,269.291,154.569,240.515C199.452,211.73,224.773,161.017,242.336,110.671C258.812,63.44,252.321,13.909,251.063,-36.097C249.626,-93.193,274.616,-162.549,234.44,-203.143C193.745,-244.262,120.97,-206.651,65.617,-223.471C9.432,-240.543,-32.838,-320.094,-88.457,-301.258C-144.899,-282.143,-137.654,-196.567,-166.99,-144.697C-189.084,-105.632,-225.154,-76.985,-239.374,-34.417C-255.67,14.366,-269.68,67.026,-254.089,116.039C-237.758,167.379,-199.186,210.361,-152.796,237.756C-107.271,264.641,-52.869,265.615,0,266.09" fill="#650638"></path><path d="M300 1042.892C346.217 1041.075 388.49 1022.9 429.493 1001.496 474.08299999999997 978.219 523.266 957.037 548.178 913.3389999999999 573.904 868.213 575.585 812.815 566.182 761.729 556.998 711.83 525.608 671.36 496.05 630.1220000000001 463.58299999999997 584.826 436.749 530.889 385.325 509.409 332.074 487.166 269.535 492.142 215.74 513.037 164.075 533.104 129.017 578.596 94.84800000000001 622.235 62.178 663.9590000000001 35.68000000000001 708.795 22.31099999999998 760.074 7.677999999999997 816.2-13.894999999999982 879.808 14.512 930.3779999999999 42.85700000000003 980.838 109.94900000000001 990.72 163.794 1011.941 208.006 1029.365 252.515 1044.759 300 1042.892" fill="#c50c6c"></path></g><defs><mask id="SvgjsMask1001"><rect width="300" height="800" fill="#ffffff"></rect></mask></defs></svg>